<svg height="512" viewBox="0 0 64 64" width="512" xmlns="http://www.w3.org/2000/svg"><g id="Flat"><g id="Color_copy" data-name="Color copy"><path d="m12 22h40a4 4 0 0 1 4 4v29a0 0 0 0 1 0 0h-48a0 0 0 0 1 0 0v-29a4 4 0 0 1 4-4z" fill="#e9f1f2"/><path d="m34 38v-16h-22a4 4 0 0 0 -4 4v28h48z" fill="#d0d8da"/><path d="m61 53v4a4 4 0 0 1 -4 4h-50a4 4 0 0 1 -4-4v-4h23v2h12v-2z" fill="#93999a"/><path d="m60.87 58a3.992 3.992 0 0 1 -3.87 3h-50a4 4 0 0 1 -4-4v-4h5v1a4 4 0 0 0 4 4z" fill="#656b76"/><g fill="#464a51"><circle cx="8" cy="57" r="1"/><circle cx="12" cy="57" r="1"/><circle cx="51" cy="57" r="1"/><circle cx="55" cy="57" r="1"/></g><rect fill="#ef5350" height="16" rx="2" width="18" x="39" y="9"/><path d="m57 22v1a2.006 2.006 0 0 1 -2 2h-14a2.006 2.006 0 0 1 -2-2v-12a2.006 2.006 0 0 1 2-2h1v1a12 12 0 0 0 12 12z" fill="#e53935"/><path d="m43 14h6v6h-6z" fill="#ffea00"/><path d="m53 20-4-2v-2l4-2z" fill="#ffea00"/><path d="m49 18v2h-6v-6h2v1a3 3 0 0 0 3 3z" fill="#ffd000"/><path d="m53 18.5v1.5l-4-2v-2l1.03-.52a3.224 3.224 0 0 0 1.76 2.41z" fill="#ffd000"/><path d="m47.37 20h-4.37v-5.19a12.073 12.073 0 0 0 4.37 5.19z" fill="#ffb700"/><rect fill="#ade8f4" height="24" rx="4" width="28" x="3" y="17"/><path d="m31 36v1a4 4 0 0 1 -4 4h-20a4 4 0 0 1 -4-4v-16a4 4 0 0 1 4-4h3v3a16 16 0 0 0 16 16z" fill="#48cae4"/><path d="m25 21h-8a2 2 0 0 0 -2 2v4a2 2 0 0 0 2 2h4l4 4v-4a2 2 0 0 0 2-2v-4a2 2 0 0 0 -2-2z" fill="#ff7373"/><path d="m27 26v1a2.006 2.006 0 0 1 -2 2v4l-4-4h-4a2.006 2.006 0 0 1 -2-2v-4a2.006 2.006 0 0 1 2-2h1.09a5.99 5.99 0 0 0 5.91 5z" fill="#ef5350"/><path d="m9 25h8a2 2 0 0 1 2 2v4a2 2 0 0 1 -2 2h-4l-4 4v-4a2 2 0 0 1 -2-2v-4a2 2 0 0 1 2-2z" fill="#ffea00"/><path d="m19 31a2.006 2.006 0 0 1 -2 2h-4l-4 4v-4a2.006 2.006 0 0 1 -2-2v-4a2.006 2.006 0 0 1 2-2h3.08a6.979 6.979 0 0 0 6.92 6z" fill="#ffd000"/><path d="m16.66 33h-3.66l-4 4v-4a2.006 2.006 0 0 1 -2-2v-4a2.006 2.006 0 0 1 2-2h1.8a15.992 15.992 0 0 0 5.86 8z" fill="#ffb700"/><path d="m11 22h-3a1 1 0 0 1 0-2h3a1 1 0 0 1 0 2z" fill="#e9f1f2"/><path d="m10.13 22h-2.13a1 1 0 0 1 0-2h2a14.713 14.713 0 0 0 .13 2z" fill="#d0d8da"/><circle cx="49" cy="41" fill="#ade8f4" r="12"/><path d="m59.61 46.61a11.7 11.7 0 0 1 -2.12 2.88 12.007 12.007 0 0 1 -16.98-16.98 11.7 11.7 0 0 1 2.88-2.12 12 12 0 0 0 16.22 16.22z" fill="#48cae4"/><path d="m53.6 44.182a2.428 2.428 0 0 0 -2.483-.587l-1.647.55a2 2 0 0 1 -2.047-.483l-1.081-1.081a2 2 0 0 1 -.483-2.047l.55-1.647a2.428 2.428 0 0 0 -.587-2.483 2.425 2.425 0 0 0 -3.923.712 7.276 7.276 0 0 0 1.479 8.157l1.353 1.353a7.276 7.276 0 0 0 8.157 1.479 2.425 2.425 0 0 0 .712-3.923z" fill="#ffea00"/><path d="m53.14 47.97a2.148 2.148 0 0 1 -.26.14 7.283 7.283 0 0 1 -8.15-1.48l-1.36-1.36a7.292 7.292 0 0 1 -2.13-5.15 7.21 7.21 0 0 1 .65-3 2.148 2.148 0 0 1 .14-.26 11.983 11.983 0 0 0 11.11 11.11z" fill="#ffd000"/><path d="m51.707 41.293a1 1 0 0 1 -1-1 1 1 0 0 0 -1-1 1 1 0 0 1 0-2 3 3 0 0 1 3 3 1 1 0 0 1 -1 1z" fill="#ffea00"/><path d="m55.707 41.293a1 1 0 0 1 -1-1 5.006 5.006 0 0 0 -5-5 1 1 0 0 1 0-2 7.008 7.008 0 0 1 7 7 1 1 0 0 1 -1 1z" fill="#ffea00"/><path d="m13 3h14v10h-14z" fill="#ffd000"/><path d="m19 11-6-8h14z" fill="#ffb700"/><path d="m27 11v2h-14v-10h2v2a6 6 0 0 0 6 6z" fill="#ffb700"/><path d="m20 9-7-6h14z" fill="#ffea00"/><path d="m20 9-7-6h5a5.117 5.117 0 0 0 1.236 5.236z" fill="#ffd000"/><path d="m22.417 52.746a1.9 1.9 0 0 1 -2.208-.224l-3.709-3.289 3.464-2 2.762 2.45a1.9 1.9 0 0 1 -.309 3.063z" fill="#ffd000"/><path d="m22.42 52.75a1.918 1.918 0 0 1 -2.21-.23l-3.71-3.29 3.46-2 1.16 1.02-2.02.48-.55.32 1.66 1.47a1.918 1.918 0 0 0 2.21.23 1.791 1.791 0 0 0 .66-.65 1.9 1.9 0 0 1 -.66 2.65z" fill="#ffb700"/><path d="m15 43.635h3a0 0 0 0 1 0 0v6a0 0 0 0 1 0 0h-3a3 3 0 0 1 -3-3 3 3 0 0 1 3-3z" fill="#ff7373" transform="matrix(.866 -.5 .5 .866 -21.308 13.748)"/><path d="m29.259 45.331-10.16 2.402-3-5.196 7.16-7.598z" fill="#ffea00"/><path d="m29.26 45.33-10.16 2.4-3-5.19 1.78-1.89a8.058 8.058 0 0 0 8.06 2.7l1.92-.45z" fill="#ffd000"/><path d="m19.1 47.73-2.6 1.5a2.992 2.992 0 0 1 -4.5-2.58 2.852 2.852 0 0 1 .18-1 2.377 2.377 0 0 0 .22.49 3 3 0 0 0 4.1 1.09l.98-.56-2.13-3.7.75-.43z" fill="#ef5350"/></g></g></svg>