<svg id="Layer_2" height="512" viewBox="0 0 512 512" width="512" xmlns="http://www.w3.org/2000/svg" data-name="Layer 2"><path d="m360 448v-208l48-40v-112h-48l73-80 71 80h-40v144l-48 40v176z" fill="#f4b651"/><path d="m408 88v112l-48 40v208h27v-192l46-43v-205l-73 80z" fill="#f2a536"/><path d="m160 448v-208l-48-40v-112h48l-73-80-79 80h48v144l48 40v176z" fill="#3dfaff"/><path d="m133 256v192h27v-208l-48-40v-112h48l-73-80v205z" fill="#2dd"/><path d="m368 364v108h-38.33v32h-153.67v-32h-40v-108a60 60 0 0 1 60-60h112a60 60 0 0 1 60 60z" fill="#23a3db"/><path d="m304 243.773c0 16.185-7.848 24.439-21.438 29.183a15.9 15.9 0 0 0 -10.562 15.044v16h-32v-16a15.9 15.9 0 0 0 -10.562-15.044c-13.59-4.744-21.438-13-21.438-29.183v-51.773a32 32 0 0 1 32-32h32a32 32 0 0 1 32 32z" fill="#894619"/><path d="m328 512h-152a8 8 0 0 1 -8-8v-168h16v160h136v-160h16v168a8 8 0 0 1 -8 8z" fill="#1c81a5"/><path d="m176 472v32h-32l-8-32z" fill="#fdcaa7"/><path d="m368 472-8 32h-30.33v-32z" fill="#fdcaa7"/><path d="m232 136v-48h-48l80-80 72 80h-48v48z" fill="#f2cb2a"/><path d="m240 288v16h32v-16a16.09 16.09 0 0 1 2.133-8h-36.266a16.09 16.09 0 0 1 2.133 8z" fill="#fdcaa7"/><path d="m237.867 242.521v-82.442a32 32 0 0 0 -29.867 31.921v51.773c0 16.185 7.848 24.439 21.438 29.183a15.9 15.9 0 0 1 10.562 15.044v16h-44a60 60 0 0 0 -60 60v108h40v40h21.51v-40l.026-112c-1.5-40.122 62.464-56 62.464-56v-27.816a15.188 15.188 0 0 0 -8.614-13.692l-1.368-.657a21.426 21.426 0 0 1 -12.151-19.314z" fill="#fafbfc" opacity=".2"/><path d="m288 88h48l-70.204-78.005-2.213-1.578-.583.583v127h25z" fill="#f7d74f"/></svg>